<svg xmlns="http://www.w3.org/2000/svg" width="1200" height="800" viewBox="0 0 1200 800" role="img" aria-label="Паркет36 — мастер по паркету"><defs><linearGradient id="bg" x1="0" y1="0" x2="1" y2="1"><stop stop-color="#f7eadb"/><stop offset=".55" stop-color="#c7935f"/><stop offset="1" stop-color="#4b2b19"/></linearGradient><linearGradient id="wood" x1="0" x2="1"><stop stop-color="#7d4825"/><stop offset=".5" stop-color="#d8a76f"/><stop offset="1" stop-color="#8d512b"/></linearGradient><filter id="s"><feDropShadow dx="0" dy="18" stdDeviation="16" flood-opacity=".24"/></filter></defs><rect width="1200" height="800" rx="44" fill="url(#bg)"/><g transform="translate(0 445)"><path d="M0 355h1200V70L0 210z" fill="#4b2b19"/><path d="M-40 230 170 210l190 250H90z" fill="url(#wood)"/><path d="M165 210 410 184l210 276H360z" fill="#b97745"/><path d="M405 184 675 154l235 306H620z" fill="#d09b65"/><path d="M670 154 1220 90v370H910z" fill="#9b5b31"/><g stroke="#fff1df" stroke-opacity=".28" stroke-width="3"><path d="M170 210 360 460M410 184 620 460M675 154 910 460"/><path d="M0 292h1200M0 235l1200-132"/></g></g><g filter="url(#s)" transform="translate(720 220)"><rect x="0" y="175" width="300" height="118" rx="34" fill="#d8c7b4"/><rect x="38" y="202" width="220" height="60" rx="20" fill="#2f3436"/><path d="M108 175c45-82 115-122 205-120" stroke="#2f3436" stroke-width="28" fill="none" stroke-linecap="round"/><circle cx="68" cy="312" r="30" fill="#151515"/><circle cx="245" cy="312" r="30" fill="#151515"/></g><g transform="translate(95 92)"><rect width="555" height="245" rx="32" fill="#fff8ef" opacity=".94"/><text x="42" y="78" font-family="Arial, sans-serif" font-size="34" font-weight="900" fill="#6f4628">ПАРКЕТ36</text><text x="42" y="142" font-family="Arial, sans-serif" font-size="44" font-weight="900" fill="#25170f">Циклёвка и</text><text x="42" y="194" font-family="Arial, sans-serif" font-size="44" font-weight="900" fill="#25170f">реставрация паркета</text></g></svg>