<svg xmlns="http://www.w3.org/2000/svg" width="1200" height="800" viewBox="0 0 1200 800" role="img" aria-label="Паркет36 — место под реальные фото паркетных работ"><defs><linearGradient id="bg" x1="0" y1="0" x2="1" y2="1"><stop stop-color="#fff8ef"/><stop offset=".62" stop-color="#e3bd91"/><stop offset="1" stop-color="#6f4628"/></linearGradient><pattern id="grain" width="90" height="90" patternUnits="userSpaceOnUse"><path d="M0 30h90M0 60h90" stroke="#6f4628" stroke-opacity=".08" stroke-width="3"/><path d="M18 0c14 24 14 62 0 90M60 0c-14 26-14 62 0 90" stroke="#6f4628" stroke-opacity=".06" stroke-width="2" fill="none"/></pattern></defs><rect width="1200" height="800" rx="44" fill="url(#bg)"/><rect width="1200" height="800" rx="44" fill="url(#grain)"/><rect x="78" y="80" width="1044" height="640" rx="38" fill="#fff8ef" opacity=".92"/><text x="125" y="175" font-family="Arial, sans-serif" font-size="44" font-weight="900" fill="#6f4628">ПАРКЕТ36</text><text x="125" y="278" font-family="Arial, sans-serif" font-size="64" font-weight="900" fill="#24170f">Здесь будет</text><text x="125" y="350" font-family="Arial, sans-serif" font-size="64" font-weight="900" fill="#24170f">реальное фото работы</text><text x="125" y="430" font-family="Arial, sans-serif" font-size="32" fill="#5d4638">циклёвка • реставрация • покрытие • до/после</text><rect x="125" y="520" width="420" height="120" rx="24" fill="#fff" stroke="#d7b38d" stroke-width="5" stroke-dasharray="14 14"/><text x="335" y="592" text-anchor="middle" font-family="Arial, sans-serif" font-size="30" font-weight="900" fill="#6f4628">кадр с объекта</text><rect x="620" y="520" width="380" height="120" rx="24" fill="#fff" stroke="#d7b38d" stroke-width="5" stroke-dasharray="14 14"/><text x="810" y="592" text-anchor="middle" font-family="Arial, sans-serif" font-size="30" font-weight="900" fill="#6f4628">без фейков</text></svg>