<svg xmlns="http://www.w3.org/2000/svg" viewBox="0 0 960 1200" role="img" aria-label="Мастер Паркет36 за работой"><defs><linearGradient id="bg" x1="0" y1="0" x2="1" y2="1"><stop stop-color="#fbefe0"/><stop offset=".58" stop-color="#c99a67"/><stop offset="1" stop-color="#6c4025"/></linearGradient><linearGradient id="cloth" x1="0" y1="0" x2="1" y2="1"><stop stop-color="#3c4246"/><stop offset="1" stop-color="#151819"/></linearGradient><linearGradient id="wood" x1="0" y1="0" x2="1" y2="0"><stop stop-color="#7d4825"/><stop offset=".5" stop-color="#d2a06a"/><stop offset="1" stop-color="#8b512b"/></linearGradient><filter id="s"><feDropShadow dx="0" dy="24" stdDeviation="18" flood-opacity=".24"/></filter></defs><rect width="960" height="1200" rx="58" fill="url(#bg)"/><path d="M0 805h960v395H0z" fill="#2f1b10" opacity=".24"/><g transform="translate(0 770)"><path d="M0 380h960V80L0 210z" fill="#51301c"/><path d="M-20 215 185 195l180 250H110z" fill="url(#wood)"/><path d="M175 196 392 170l196 275H365z" fill="#b87542"/><path d="M385 171 632 142l218 303H588z" fill="#cf9862"/><path d="M625 143 980 100v345H850z" fill="#9c5b31"/><g stroke="#fff2df" stroke-opacity=".27" stroke-width="3"><path d="M184 195 365 445M392 170 588 445M632 142 850 445"/><path d="M0 284h960M0 226l960-107"/></g></g><g filter="url(#s)" transform="translate(230 115)"><path d="M155 130c0-76 58-122 125-122s125 46 125 122c0 58-34 105-80 124v73h-90v-73c-47-19-80-66-80-124z" fill="#c99572"/><path d="M150 126c8-82 62-132 134-132 75 0 126 48 132 135-77-31-164-32-266-3z" fill="#1b1b1a"/><path d="M105 350c21-83 85-129 175-129s154 46 175 129l58 402H47z" fill="url(#cloth)"/><path d="M207 260l73 85 73-85 33 113-106 128-106-128z" fill="#24282b"/><path d="M280 500v250" stroke="#d7dadb" stroke-width="7" opacity=".7"/><rect x="350" y="430" width="110" height="62" rx="15" fill="#fff3df"/><text x="405" y="470" text-anchor="middle" font-family="Arial" font-size="31" font-weight="900" fill="#6f4628">П36</text><rect x="92" y="540" width="155" height="116" rx="20" fill="none" stroke="#c7cdd0" stroke-width="6" opacity=".55"/><rect x="315" y="540" width="155" height="116" rx="20" fill="none" stroke="#c7cdd0" stroke-width="6" opacity=".55"/><path d="M58 720h444v80H58z" fill="#191b1d"/><path d="M112 768h335" stroke="#c58a55" stroke-width="14" stroke-linecap="round"/></g><g transform="translate(118 820)" filter="url(#s)"><rect x="0" y="92" width="230" height="118" rx="26" fill="#d9cbb9"/><rect x="32" y="120" width="166" height="58" rx="20" fill="#2c3032"/><path d="M104 92c34-68 85-103 150-105" stroke="#2c3032" stroke-width="26" fill="none" stroke-linecap="round"/></g><rect x="58" y="58" width="844" height="1084" rx="46" fill="none" stroke="#fff6e9" stroke-width="8" opacity=".72"/></svg>