<svg xmlns="http://www.w3.org/2000/svg" viewBox="0 0 960 1200" role="img" aria-label="Иван в рабочем костюме"><defs><linearGradient id="bg" x1="0" y1="0" x2="1" y2="1"><stop stop-color="#f4e6d5"/><stop offset="1" stop-color="#b88858"/></linearGradient><linearGradient id="suit" x1="0" y1="0" x2="1" y2="1"><stop stop-color="#4f565a"/><stop offset="1" stop-color="#262b2e"/></linearGradient><filter id="sh"><feDropShadow dx="0" dy="20" stdDeviation="20" flood-opacity=".18"/></filter></defs><rect width="960" height="1200" rx="60" fill="url(#bg)"/><g opacity=".22" stroke="#6f4628" stroke-width="8" fill="none"><path d="M0 850h960M0 930h960M0 1010h960M0 1090h960"/><path d="M480 780L40 1200M480 780l440 420M480 780L250 1200M480 780l230 420"/></g><g filter="url(#sh)"><path d="M195 1140l22-470c8-170 115-278 263-278s255 108 263 278l22 470z" fill="url(#suit)"/><path d="M217 670c20-147 114-244 263-244s243 97 263 244l-85 38-72-168H374l-72 168z" fill="#c09160"/><path d="M374 540l106 126 106-126-42-132H416z" fill="#24282b"/><path d="M480 666v474" stroke="#d2d5d7" stroke-width="8"/><rect x="575" y="615" width="128" height="70" rx="16" fill="#fff5e8"/><text x="639" y="664" text-anchor="middle" font-family="Arial" font-size="38" font-weight="900" fill="#6f4628">П36</text><rect x="300" y="690" width="155" height="130" rx="22" fill="none" stroke="#b9bfc2" stroke-width="6" opacity=".65"/><rect x="505" y="690" width="155" height="130" rx="22" fill="none" stroke="#b9bfc2" stroke-width="6" opacity=".65"/><path d="M217 670L92 980l145 46 117-288M743 670l125 310-145 46-117-288" fill="#41484c"/><path d="M84 974h166v91H84zM710 974h166v91H710z" rx="25" fill="#24282b"/><ellipse cx="480" cy="350" rx="178" ry="220" fill="#d9aa87"/><path d="M313 307c10-144 77-220 168-220 110 0 183 92 180 240-63-56-111-80-172-76-68 5-112 27-176 56z" fill="#2c2927"/><path d="M315 228c27-113 101-166 185-166 76 0 142 39 177 112-79-35-178-37-253-2z" fill="#17191a"/><path d="M381 345c24-20 57-22 82-3M510 342c25-20 58-18 82 4" stroke="#5b4032" stroke-width="10" stroke-linecap="round"/><ellipse cx="420" cy="375" rx="12" ry="16" fill="#3c2b22"/><ellipse cx="548" cy="375" rx="12" ry="16" fill="#3c2b22"/><path d="M484 370l-17 81 36 2" stroke="#9f6e55" stroke-width="9" fill="none" stroke-linecap="round"/><path d="M420 493c38 26 85 28 126 2" stroke="#7e4d3b" stroke-width="10" fill="none" stroke-linecap="round"/><path d="M335 295c-23 25-35 67-27 111M625 292c24 24 36 66 29 111" stroke="#b17d61" stroke-width="12" fill="none" stroke-linecap="round"/></g><rect x="65" y="65" width="830" height="1070" rx="48" fill="none" stroke="#fff8ef" stroke-width="10" opacity=".8"/></svg>