<svg xmlns="http://www.w3.org/2000/svg" viewBox="0 0 1600 900" role="img" aria-label="Иван — мастер Паркет36"><defs><linearGradient id="b" x1="0" y1="0" x2="1" y2="1"><stop stop-color="#e7c59e"/><stop offset="1" stop-color="#71462a"/></linearGradient><pattern id="w" width="170" height="85" patternUnits="userSpaceOnUse"><path d="M0 35c55-30 95 45 170 0" fill="none" stroke="#fff" stroke-opacity=".12" stroke-width="8"/></pattern></defs><rect width="1600" height="900" rx="60" fill="url(#b)"/><rect width="1600" height="900" rx="60" fill="url(#w)"/><g transform="translate(70 -170) scale(.82)"><use href="#person"/></g><defs><g id="person"><path d="M195 1140l22-470c8-170 115-278 263-278s255 108 263 278l22 470z" fill="#3c4347"/><path d="M217 670c20-147 114-244 263-244s243 97 263 244l-85 38-72-168H374l-72 168z" fill="#c09160"/><path d="M374 540l106 126 106-126-42-132H416z" fill="#24282b"/><path d="M480 666v474" stroke="#d2d5d7" stroke-width="8"/><rect x="575" y="615" width="128" height="70" rx="16" fill="#fff5e8"/><text x="639" y="664" text-anchor="middle" font-family="Arial" font-size="38" font-weight="900" fill="#6f4628">П36</text><ellipse cx="480" cy="350" rx="178" ry="220" fill="#d9aa87"/><path d="M313 307c10-144 77-220 168-220 110 0 183 92 180 240-63-56-111-80-172-76-68 5-112 27-176 56z" fill="#2c2927"/><path d="M315 228c27-113 101-166 185-166 76 0 142 39 177 112-79-35-178-37-253-2z" fill="#17191a"/><path d="M381 345c24-20 57-22 82-3M510 342c25-20 58-18 82 4" stroke="#5b4032" stroke-width="10" stroke-linecap="round"/><ellipse cx="420" cy="375" rx="12" ry="16" fill="#3c2b22"/><ellipse cx="548" cy="375" rx="12" ry="16" fill="#3c2b22"/><path d="M484 370l-17 81 36 2" stroke="#9f6e55" stroke-width="9" fill="none" stroke-linecap="round"/><path d="M420 493c38 26 85 28 126 2" stroke="#7e4d3b" stroke-width="10" fill="none" stroke-linecap="round"/></g></defs><g transform="translate(820 130)"><rect width="690" height="640" rx="44" fill="#fff8ef" opacity=".93"/><text x="70" y="115" font-family="Arial" font-size="34" font-weight="900" fill="#6f4628">ПАРКЕТ36</text><text x="70" y="205" font-family="Arial" font-size="62" font-weight="900" fill="#342116">Иван — мастер</text><text x="70" y="278" font-family="Arial" font-size="62" font-weight="900" fill="#342116">по паркету и ремонту</text><text x="70" y="365" font-family="Arial" font-size="30" fill="#6d5c50">Лично принимает заявки.</text><text x="70" y="410" font-family="Arial" font-size="30" fill="#6d5c50">Простые работы выполняет сам,</text><text x="70" y="455" font-family="Arial" font-size="30" fill="#6d5c50">сложные — через проверенных мастеров.</text><rect x="70" y="520" width="390" height="82" rx="41" fill="#6f4628"/><text x="265" y="572" text-anchor="middle" font-family="Arial" font-size="29" font-weight="900" fill="#fff">Позвонить Ивану</text></g></svg>