<svg xmlns="http://www.w3.org/2000/svg" viewBox="0 0 960 1200" role="img" aria-label="Контакты мастера Ивана по паркетным работам"><defs><linearGradient id="bg" x1="0" y1="0" x2="1" y2="1"><stop stop-color="#fff8ef"/><stop offset=".62" stop-color="#e6c29a"/><stop offset="1" stop-color="#6f4628"/></linearGradient><pattern id="grain" width="80" height="80" patternUnits="userSpaceOnUse"><path d="M0 26h80M0 54h80" stroke="#6f4628" stroke-opacity=".08" stroke-width="3"/><path d="M18 0c12 24 12 56 0 80M55 0c-12 22-12 58 0 80" stroke="#6f4628" stroke-opacity=".06" stroke-width="2" fill="none"/></pattern><filter id="s"><feDropShadow dx="0" dy="22" stdDeviation="18" flood-color="#3a2416" flood-opacity=".2"/></filter></defs><rect width="960" height="1200" rx="58" fill="url(#bg)"/><rect width="960" height="1200" rx="58" fill="url(#grain)"/><rect x="78" y="78" width="804" height="1044" rx="48" fill="#fff8ef" opacity=".94" filter="url(#s)"/><text x="120" y="210" font-family="Arial, sans-serif" font-size="38" font-weight="900" fill="#6f4628">Паркет36</text><text x="120" y="305" font-family="Arial, sans-serif" font-size="66" font-weight="900" fill="#24170f">Мастер Иван</text><text x="120" y="375" font-family="Arial, sans-serif" font-size="31" fill="#5d4638">Циклёвка, реставрация</text><text x="120" y="420" font-family="Arial, sans-serif" font-size="31" fill="#5d4638">и ремонт паркета</text><rect x="120" y="515" width="720" height="165" rx="30" fill="#fff" stroke="#d7b38d" stroke-width="5"/><text x="160" y="585" font-family="Arial, sans-serif" font-size="29" font-weight="900" fill="#6f4628">Первый ориентир по фото</text><text x="160" y="635" font-family="Arial, sans-serif" font-size="25" fill="#5d4638">Общий вид • дефект • площадь • район</text><rect x="120" y="740" width="720" height="180" rx="30" fill="#6f4628"/><text x="160" y="815" font-family="Arial, sans-serif" font-size="28" font-weight="900" fill="#fff8ef">Позвонить Ивану</text><text x="160" y="875" font-family="Arial, sans-serif" font-size="45" font-weight="900" fill="#fff">8 (900) 926-79-29</text><text x="120" y="1010" font-family="Arial, sans-serif" font-size="28" fill="#5d4638">Воронеж и Воронежская область</text></svg>