<svg xmlns="http://www.w3.org/2000/svg" viewBox="0 0 1600 900" role="img" aria-label="Паркет36 — циклёвка и реставрация паркета"><defs><linearGradient id="wall" x1="0" y1="0" x2="1" y2="1"><stop stop-color="#f7eadb"/><stop offset=".55" stop-color="#d4ad83"/><stop offset="1" stop-color="#7a4b2d"/></linearGradient><linearGradient id="shade" x1="0" y1="0" x2="0" y2="1"><stop stop-color="#fff7ec" stop-opacity=".78"/><stop offset="1" stop-color="#3c2417" stop-opacity=".14"/></linearGradient><linearGradient id="plank" x1="0" y1="0" x2="1" y2="0"><stop stop-color="#9b6338"/><stop offset=".5" stop-color="#d2a06a"/><stop offset="1" stop-color="#774523"/></linearGradient><linearGradient id="dark" x1="0" y1="0" x2="1" y2="1"><stop stop-color="#303438"/><stop offset="1" stop-color="#111416"/></linearGradient><filter id="shadow"><feDropShadow dx="0" dy="28" stdDeviation="22" flood-color="#2b170b" flood-opacity=".28"/></filter></defs><rect width="1600" height="900" rx="58" fill="url(#wall)"/><rect width="1600" height="900" rx="58" fill="url(#shade)"/><path d="M0 530h1600v370H0z" fill="#4a2c1b" opacity=".28"/><g transform="translate(0 505)"><path d="M0 345h1600V60L0 210z" fill="#5b341f"/><g opacity=".98"><path d="M-20 238 240 210l225 260H190z" fill="url(#plank)"/><path d="M235 210 505 180l235 290H465z" fill="#b87844"/><path d="M500 180 790 148l252 322H740z" fill="#cf935e"/><path d="M780 148 1090 115l272 355h-320z" fill="#a86537"/><path d="M1080 115 1620 62v408h-258z" fill="#c28850"/></g><g stroke="#fff4e4" stroke-opacity=".28" stroke-width="3"><path d="M238 210 465 470M500 180 740 470M780 148 1042 470M1080 115 1362 470"/><path d="M0 295h1600M0 238l1600-118M0 186l1600-155"/></g><g stroke="#3c2214" stroke-opacity=".3" stroke-width="2"><path d="M-20 270c110-38 183-38 300 0M318 230c110-34 190-34 315 0M650 188c120-32 205-28 330 9M1030 142c115-25 215-19 345 15" fill="none"/></g></g><g filter="url(#shadow)" transform="translate(875 240)"><path d="M270 270c0-88 42-155 105-188 45-24 104-14 139 23 62 65 88 191 89 316H303c-22-52-33-101-33-151z" fill="url(#dark)"/><path d="M325 148c36-54 92-87 160-77 17 3 38 11 54 21-50 10-84 38-103 91z" fill="#17191a"/><path d="M285 420h360l-36 104H321z" fill="#1d2023"/><path d="M362 520h210" stroke="#c58a55" stroke-width="18" stroke-linecap="round"/><circle cx="352" cy="548" r="34" fill="#111"/><circle cx="583" cy="548" r="34" fill="#111"/><rect x="72" y="392" width="326" height="125" rx="38" fill="#d7c8b8"/><rect x="112" y="414" width="245" height="74" rx="26" fill="#2e3336"/><path d="M187 392c38-72 102-112 178-118" stroke="#2e3336" stroke-width="28" fill="none" stroke-linecap="round"/><path d="M210 514c56 42 154 42 218 2" stroke="#f0d5b9" stroke-width="12" stroke-linecap="round" opacity=".65"/></g><g transform="translate(95 95)"><rect width="550" height="230" rx="34" fill="#fff8ef" opacity=".94"/><text x="52" y="78" font-family="Arial, sans-serif" font-size="34" font-weight="900" fill="#6f4628">ПАРКЕТ36</text><text x="52" y="142" font-family="Arial, sans-serif" font-size="43" font-weight="900" fill="#26170f">Старый пол можно</text><text x="52" y="190" font-family="Arial, sans-serif" font-size="43" font-weight="900" fill="#26170f">сначала оценить</text></g></svg>