<svg xmlns="http://www.w3.org/2000/svg" width="560" height="112" viewBox="0 0 560 112" role="img" aria-labelledby="logo-title logo-desc">
  <title id="logo-title">Паркет36</title>
  <desc id="logo-desc">Логотип Паркет36: дом с паркетной раскладкой и надпись Паркет 36</desc>
  <defs>
    <linearGradient id="wood1" x1="0" y1="0" x2="1" y2="1">
      <stop offset="0" stop-color="#f0c17b"/>
      <stop offset="0.48" stop-color="#b46a28"/>
      <stop offset="1" stop-color="#6f3514"/>
    </linearGradient>
    <linearGradient id="wood2" x1="0" y1="0" x2="1" y2="1">
      <stop offset="0" stop-color="#d99443"/>
      <stop offset="0.5" stop-color="#8f4518"/>
      <stop offset="1" stop-color="#e0a45d"/>
    </linearGradient>
    <linearGradient id="wood3" x1="0" y1="0" x2="1" y2="1">
      <stop offset="0" stop-color="#f5c783"/>
      <stop offset="0.55" stop-color="#c8782d"/>
      <stop offset="1" stop-color="#7a3a16"/>
    </linearGradient>
    <linearGradient id="woodText" x1="0" y1="0" x2="1" y2="1">
      <stop offset="0" stop-color="#e6a052"/>
      <stop offset="0.45" stop-color="#a85b20"/>
      <stop offset="1" stop-color="#d8903d"/>
    </linearGradient>
    <clipPath id="houseClip">
      <path d="M36 65 L92 22 L148 65 L148 92 L36 92 Z"/>
    </clipPath>
  </defs>

  <g transform="translate(8 4)">
    <path d="M28 59 L92 9 L156 59" fill="none" stroke="#202124" stroke-width="9" stroke-linecap="square" stroke-linejoin="miter"/>
    <path d="M139 35 H156 V59 H139 Z" fill="#202124"/>
    <rect x="49" y="60" width="7" height="22" rx="1" fill="#202124"/>
    <rect x="128" y="60" width="7" height="22" rx="1" fill="#202124"/>
    <g transform="translate(82 43)" fill="#202124">
      <rect x="0" y="0" width="11" height="11" rx="1"/>
      <rect x="16" y="0" width="11" height="11" rx="1"/>
      <rect x="0" y="16" width="11" height="11" rx="1"/>
      <rect x="16" y="16" width="11" height="11" rx="1"/>
    </g>
    <g clip-path="url(#houseClip)">
      <rect x="36" y="62" width="112" height="32" fill="#ffffff"/>
      <path d="M28 92 L56 64 L89 97 L61 125 Z" fill="url(#wood1)" stroke="#ffffff" stroke-width="4"/>
      <path d="M58 64 L77 45 L128 96 L109 115 Z" fill="url(#wood3)" stroke="#ffffff" stroke-width="4"/>
      <path d="M96 66 L123 39 L156 72 L129 99 Z" fill="url(#wood2)" stroke="#ffffff" stroke-width="4"/>
      <path d="M42 82 L65 59 L102 96 L79 119 Z" fill="url(#wood2)" stroke="#ffffff" stroke-width="4" opacity="0.95"/>
      <path d="M112 86 L139 59 L167 87 L140 114 Z" fill="url(#wood1)" stroke="#ffffff" stroke-width="4"/>
    </g>
  </g>

  <g transform="translate(184 28)">
    <text x="0" y="50" font-family="Arial Black, Arial, sans-serif" font-size="60" font-weight="900" letter-spacing="-3" fill="#202124">Паркет</text>
    <text x="238" y="50" font-family="Arial Black, Arial, sans-serif" font-size="60" font-weight="900" letter-spacing="-2" fill="url(#woodText)">36</text>
    <path d="M20 70 H176" stroke="#202124" stroke-width="2" opacity="0.8"/>
    <path d="M310 70 H362" stroke="#202124" stroke-width="2" opacity="0.8"/>
    <path d="M230 71 C239 53 255 53 264 44 C263 61 253 72 236 76 C238 70 244 62 252 56 C243 60 236 65 230 71 Z" fill="#5d9b51"/>
  </g>
</svg>
