<svg xmlns="http://www.w3.org/2000/svg" width="1200" height="630" viewBox="0 0 1200 630" role="img" aria-label="Паркет36 — циклёвка и реставрация паркета в Воронеже">
  <defs>
    <linearGradient id="bg" x1="0" y1="0" x2="1" y2="1">
      <stop stop-color="#fff8ef"/>
      <stop offset="0.55" stop-color="#d9ad7d"/>
      <stop offset="1" stop-color="#4b2d1b"/>
    </linearGradient>
    <linearGradient id="card" x1="0" y1="0" x2="1" y2="1">
      <stop stop-color="#ffffff" stop-opacity="0.96"/>
      <stop offset="1" stop-color="#fff3e3" stop-opacity="0.94"/>
    </linearGradient>
    <pattern id="grain" width="120" height="120" patternUnits="userSpaceOnUse">
      <path d="M0 36h120M0 78h120" stroke="#6f4628" stroke-opacity="0.09" stroke-width="4"/>
      <path d="M24 0c22 36 22 84 0 120M82 0c-20 34-20 86 0 120" stroke="#6f4628" stroke-opacity="0.07" stroke-width="3" fill="none"/>
      <circle cx="52" cy="58" r="15" fill="none" stroke="#6f4628" stroke-opacity="0.06" stroke-width="3"/>
    </pattern>
    <filter id="shadow" x="-20%" y="-20%" width="140%" height="140%">
      <feDropShadow dx="0" dy="18" stdDeviation="18" flood-color="#24170f" flood-opacity="0.18"/>
    </filter>
  </defs>
  <rect width="1200" height="630" fill="url(#bg)"/>
  <rect width="1200" height="630" fill="url(#grain)"/>
  <rect x="72" y="70" width="1056" height="490" rx="44" fill="url(#card)" filter="url(#shadow)"/>
  <rect x="104" y="102" width="94" height="94" rx="24" fill="#6f4628"/>
  <text x="151" y="163" text-anchor="middle" font-family="Arial, sans-serif" font-size="44" font-weight="900" fill="#fff8ef">36</text>
  <text x="226" y="143" font-family="Arial, sans-serif" font-size="42" font-weight="900" fill="#6f4628">ПАРКЕТ36</text>
  <text x="226" y="183" font-family="Arial, sans-serif" font-size="25" fill="#6a5142">мастер Иван · Воронеж и область</text>
  <text x="104" y="282" font-family="Arial, sans-serif" font-size="68" font-weight="900" fill="#24170f">Циклёвка и реставрация</text>
  <text x="104" y="358" font-family="Arial, sans-serif" font-size="68" font-weight="900" fill="#24170f">паркета</text>
  <text x="108" y="428" font-family="Arial, sans-serif" font-size="31" fill="#5d4638">Старый лак · щели · скрип · пятна · деревянные полы</text>
  <rect x="104" y="474" width="362" height="62" rx="31" fill="#6f4628"/>
  <text x="285" y="515" text-anchor="middle" font-family="Arial, sans-serif" font-size="29" font-weight="900" fill="#fff8ef">8 (900) 926-79-29</text>
  <g transform="translate(820 132)">
    <rect x="0" y="0" width="230" height="330" rx="28" fill="#f5dfc2" stroke="#d7b38d" stroke-width="5"/>
    <path d="M48 56h134M48 116h134M48 176h134M48 236h134" stroke="#8a5b38" stroke-width="12" stroke-linecap="round"/>
    <path d="M82 56c28 42 28 78 0 120M150 116c-26 38-26 82 0 120" stroke="#6f4628" stroke-opacity="0.34" stroke-width="7" fill="none" stroke-linecap="round"/>
    <circle cx="116" cy="162" r="25" fill="none" stroke="#6f4628" stroke-opacity="0.25" stroke-width="7"/>
  </g>
</svg>
