<svg xmlns="http://www.w3.org/2000/svg" width="1200" height="800" viewBox="0 0 1200 800" role="img" aria-label="Паркет36 — циклёвка и реставрация паркета"><defs><linearGradient id="bg" x1="0" y1="0" x2="1" y2="1"><stop stop-color="#fff8ef"/><stop offset=".58" stop-color="#d9ad7d"/><stop offset="1" stop-color="#4b2d1b"/></linearGradient><pattern id="grain" width="100" height="100" patternUnits="userSpaceOnUse"><path d="M0 34h100M0 68h100" stroke="#6f4628" stroke-opacity=".08" stroke-width="3"/><path d="M22 0c18 30 18 70 0 100M70 0c-16 28-16 72 0 100" stroke="#6f4628" stroke-opacity=".06" stroke-width="2" fill="none"/></pattern></defs><rect width="1200" height="800" fill="url(#bg)"/><rect width="1200" height="800" fill="url(#grain)"/><rect x="70" y="78" width="1060" height="644" rx="42" fill="#fff8ef" opacity=".92"/><text x="120" y="180" font-family="Arial, sans-serif" font-size="48" font-weight="900" fill="#6f4628">ПАРКЕТ36</text><text x="120" y="285" font-family="Arial, sans-serif" font-size="72" font-weight="900" fill="#24170f">Циклёвка и</text><text x="120" y="365" font-family="Arial, sans-serif" font-size="72" font-weight="900" fill="#24170f">реставрация паркета</text><text x="120" y="455" font-family="Arial, sans-serif" font-size="34" fill="#5d4638">Воронеж и область • мастер Иван</text><text x="120" y="515" font-family="Arial, sans-serif" font-size="34" fill="#5d4638">Оценка старого пола по фото и телефону</text><rect x="120" y="585" width="360" height="74" rx="37" fill="#6f4628"/><text x="300" y="635" text-anchor="middle" font-family="Arial, sans-serif" font-size="32" font-weight="900" fill="#fff8ef">8 (900) 926-79-29</text><rect x="760" y="580" width="280" height="86" rx="22" fill="none" stroke="#d7b38d" stroke-width="5" stroke-dasharray="14 14"/><text x="900" y="634" text-anchor="middle" font-family="Arial, sans-serif" font-size="27" font-weight="900" fill="#6f4628">реальные фото позже</text></svg>