<svg xmlns="http://www.w3.org/2000/svg" width="1200" height="800" viewBox="0 0 1200 800" role="img" aria-label="Паркет36 — циклёвка и реставрация"><defs><linearGradient id="bg" x1="0" y1="0" x2="1" y2="1"><stop stop-color="#f8ecdd"/><stop offset=".55" stop-color="#c38c58"/><stop offset="1" stop-color="#3c2315"/></linearGradient><linearGradient id="wood" x1="0" x2="1"><stop stop-color="#70401f"/><stop offset=".5" stop-color="#d7a86f"/><stop offset="1" stop-color="#8b5029"/></linearGradient></defs><rect width="1200" height="800" fill="url(#bg)"/><path d="M0 520h1200v280H0z" fill="#2f1b10" opacity=".22"/><g transform="translate(0 460)"><path d="M0 340h1200V95L0 215z" fill="#51301c"/><path d="M-20 240 210 220l195 250H120z" fill="url(#wood)"/><path d="M200 220 460 190l214 280H405z" fill="#b97745"/><path d="M455 190 730 158l240 312H674z" fill="#cf9863"/><path d="M724 158 1220 98v372H970z" fill="#98582f"/><g stroke="#fff1de" stroke-opacity=".25" stroke-width="3"><path d="M210 220 405 470M460 190 674 470M730 158 970 470"/><path d="M0 292h1200M0 238l1200-125"/></g></g><rect x="78" y="82" width="720" height="250" rx="34" fill="#fff8ef" opacity=".94"/><text x="125" y="158" font-family="Arial, sans-serif" font-size="42" font-weight="900" fill="#6f4628">ПАРКЕТ36</text><text x="125" y="225" font-family="Arial, sans-serif" font-size="52" font-weight="900" fill="#24170f">Паркет можно</text><text x="125" y="285" font-family="Arial, sans-serif" font-size="52" font-weight="900" fill="#24170f">восстановить</text><g transform="translate(820 120)"><rect x="0" y="180" width="250" height="96" rx="30" fill="#d8c8b6"/><rect x="32" y="202" width="184" height="50" rx="16" fill="#2e3335"/><path d="M100 180c38-70 96-105 168-102" stroke="#2e3335" stroke-width="24" fill="none" stroke-linecap="round"/><circle cx="62" cy="292" r="26" fill="#141414"/><circle cx="203" cy="292" r="26" fill="#141414"/></g></svg>