<svg xmlns="http://www.w3.org/2000/svg" width="1200" height="800" viewBox="0 0 1200 800" role="img" aria-label="Инструменты и мелкий ремонт"><defs><linearGradient id="bg" x1="0" y1="0" x2="1" y2="1"><stop stop-color="#fbefe0"/><stop offset="1" stop-color="#73462a"/></linearGradient><filter id="s"><feDropShadow dx="0" dy="18" stdDeviation="14" flood-opacity=".22"/></filter></defs><rect width="1200" height="800" rx="44" fill="url(#bg)"/><g transform="translate(150 120)" filter="url(#s)"><rect width="900" height="500" rx="38" fill="#fff8ef"/><path d="M95 360h710" stroke="#6f4628" stroke-width="18" stroke-linecap="round" opacity=".35"/><path d="M210 120l135 135-58 58-135-135z" fill="#2f3436"/><path d="M168 168l-55 55" stroke="#c58a55" stroke-width="44" stroke-linecap="round"/><path d="M445 110h270v64H445z" fill="#2f3436"/><path d="M712 142l80 150-64 34-78-152z" fill="#c58a55"/><path d="M425 322h355v70H425z" fill="#d6c7b5"/><path d="M470 322v70M530 322v70M590 322v70M650 322v70M710 322v70" stroke="#8b512c" stroke-width="6" opacity=".38"/><rect x="165" y="325" width="175" height="96" rx="22" fill="#c58a55"/><rect x="190" y="350" width="125" height="36" rx="12" fill="#fff2df"/></g></svg>