<svg xmlns="http://www.w3.org/2000/svg" width="1200" height="800" viewBox="0 0 1200 800" role="img" aria-label="Как начинается работа с паркетом"><defs><linearGradient id="bg" x1="0" y1="0" x2="1" y2="1"><stop stop-color="#fff8ef"/><stop offset=".62" stop-color="#e3bd91"/><stop offset="1" stop-color="#6f4628"/></linearGradient><pattern id="grain" width="90" height="90" patternUnits="userSpaceOnUse"><path d="M0 30h90M0 60h90" stroke="#6f4628" stroke-opacity=".08" stroke-width="3"/><path d="M18 0c14 24 14 62 0 90M60 0c-14 26-14 62 0 90" stroke="#6f4628" stroke-opacity=".06" stroke-width="2" fill="none"/></pattern></defs><rect width="1200" height="800" rx="44" fill="url(#bg)"/><rect width="1200" height="800" rx="44" fill="url(#grain)"/><rect x="82" y="86" width="1036" height="628" rx="38" fill="#fff8ef" opacity=".94"/><text x="130" y="180" font-family="Arial, sans-serif" font-size="48" font-weight="900" fill="#6f4628">От фотографии до решения</text><text x="130" y="245" font-family="Arial, sans-serif" font-size="30" fill="#3a2416">Понятный первый этап без обещаний точной цены вслепую</text><rect x="130" y="320" width="270" height="220" rx="26" fill="#fff" stroke="#d7b38d" stroke-width="4"/><text x="165" y="390" font-family="Arial, sans-serif" font-size="30" font-weight="900" fill="#24170f">Фото и видео</text><text x="165" y="445" font-family="Arial, sans-serif" font-size="23" fill="#5d4638">Общий вид, дефект,</text><text x="165" y="485" font-family="Arial, sans-serif" font-size="23" fill="#5d4638">скрип или движение</text><rect x="465" y="320" width="270" height="220" rx="26" fill="#fff" stroke="#d7b38d" stroke-width="4"/><text x="500" y="390" font-family="Arial, sans-serif" font-size="30" font-weight="900" fill="#24170f">Уточнение</text><text x="500" y="445" font-family="Arial, sans-serif" font-size="23" fill="#5d4638">Площадь, район,</text><text x="500" y="485" font-family="Arial, sans-serif" font-size="23" fill="#5d4638">состояние покрытия</text><rect x="800" y="320" width="270" height="220" rx="26" fill="#fff" stroke="#d7b38d" stroke-width="4"/><text x="835" y="390" font-family="Arial, sans-serif" font-size="30" font-weight="900" fill="#24170f">Следующий шаг</text><text x="835" y="445" font-family="Arial, sans-serif" font-size="23" fill="#5d4638">Совет, доп. фото</text><text x="835" y="485" font-family="Arial, sans-serif" font-size="23" fill="#5d4638">или осмотр объекта</text><text x="130" y="630" font-family="Arial, sans-serif" font-size="30" font-weight="900" fill="#6f4628">Телефон Иванa: 8 (900) 926-79-29</text></svg>