<svg xmlns="http://www.w3.org/2000/svg" width="1200" height="800" viewBox="0 0 1200 800" role="img" aria-label="Паркет и деревянный пол"><defs><linearGradient id="bg" x1="0" y1="0" x2="1" y2="1"><stop stop-color="#f7eadb"/><stop offset=".58" stop-color="#c9905c"/><stop offset="1" stop-color="#53301c"/></linearGradient><linearGradient id="wood" x1="0" y1="0" x2="1" y2="0"><stop stop-color="#7c4624"/><stop offset=".45" stop-color="#d5a46d"/><stop offset="1" stop-color="#8b512c"/></linearGradient><filter id="sh"><feDropShadow dx="0" dy="20" stdDeviation="16" flood-opacity=".24"/></filter></defs><rect width="1200" height="800" rx="44" fill="url(#bg)"/><path d="M0 430h1200v370H0z" fill="#2e1a10" opacity=".2"/><g transform="translate(0 370)"><path d="M0 430h1200V70L0 230z" fill="#4f2f1c"/><path d="M-40 255 150 238l185 250H86z" fill="url(#wood)"/><path d="M142 238 350 210l202 278H335z" fill="#b77542"/><path d="M340 211 570 178l226 310H552z" fill="#d09861"/><path d="M560 180 810 143l250 345H796z" fill="#9f5f34"/><path d="M800 145 1240 80v408h-180z" fill="#c38850"/><g stroke="#fff0dd" stroke-opacity=".3" stroke-width="3"><path d="M150 238 335 488M350 210 552 488M570 178 796 488M810 143 1060 488"/><path d="M0 318h1200M0 262l1200-150M0 210l1200-190"/></g><g stroke="#3b2113" stroke-opacity=".32" stroke-width="2" fill="none"><path d="M70 272c72-35 140-35 215 0M352 238c80-35 154-34 240 5M650 198c90-30 168-25 248 9M910 160c96-22 180-16 252 11"/></g></g><g transform="translate(600 190)" filter="url(#sh)"><rect x="105" y="238" width="310" height="120" rx="36" fill="#d9cbb9"/><rect x="145" y="263" width="228" height="66" rx="22" fill="#303538"/><path d="M220 238c42-86 113-132 210-132" stroke="#303538" stroke-width="30" fill="none" stroke-linecap="round"/><path d="M185 362c72 42 186 42 260 0" stroke="#f3d7b8" stroke-width="12" stroke-linecap="round" opacity=".65"/><circle cx="170" cy="380" r="32" fill="#111"/><circle cx="376" cy="380" r="32" fill="#111"/></g><g transform="translate(105 95)"><rect width="382" height="178" rx="28" fill="#fff8ef" opacity=".94"/><text x="38" y="68" font-family="Arial, sans-serif" font-size="32" font-weight="900" fill="#6f4628">Паркет и пол</text><text x="38" y="116" font-family="Arial, sans-serif" font-size="26" fill="#4b3427">диагностика • шлифовка</text><text x="38" y="152" font-family="Arial, sans-serif" font-size="26" fill="#4b3427">реставрация • покрытие</text></g></svg>