<svg xmlns="http://www.w3.org/2000/svg" width="1200" height="800" viewBox="0 0 1200 800" role="img" aria-label="Грузчики и перевозка"><defs><linearGradient id="bg" x1="0" y1="0" x2="1" y2="1"><stop stop-color="#f7eadb"/><stop offset="1" stop-color="#704326"/></linearGradient><filter id="s"><feDropShadow dx="0" dy="18" stdDeviation="14" flood-opacity=".22"/></filter></defs><rect width="1200" height="800" rx="44" fill="url(#bg)"/><g transform="translate(140 125)" filter="url(#s)"><rect width="920" height="490" rx="38" fill="#fff8ef"/><path d="M90 390h740" stroke="#6f4628" stroke-width="18" stroke-linecap="round" opacity=".25"/><rect x="145" y="185" width="190" height="150" rx="20" fill="#d9c8b6"/><rect x="365" y="135" width="230" height="200" rx="24" fill="#c58a55"/><rect x="625" y="225" width="145" height="110" rx="20" fill="#8b512c" opacity=".78"/><g stroke="#7b4a2c" stroke-width="7" opacity=".55"><path d="M145 235h190M240 185v150M365 225h230M480 135v200M625 280h145"/></g><path d="M188 380h645" stroke="#2f3436" stroke-width="28" stroke-linecap="round"/><circle cx="250" cy="410" r="34" fill="#111"/><circle cx="735" cy="410" r="34" fill="#111"/><path d="M705 140h115l46 78H750z" fill="#2f3436"/></g></svg>