<svg xmlns="http://www.w3.org/2000/svg" width="1200" height="800" viewBox="0 0 1200 800" role="img" aria-label="Демонтаж и вывоз"><defs><linearGradient id="bg" x1="0" y1="0" x2="1" y2="1"><stop stop-color="#fbefe0"/><stop offset="1" stop-color="#704326"/></linearGradient><filter id="s"><feDropShadow dx="0" dy="18" stdDeviation="14" flood-opacity=".22"/></filter></defs><rect width="1200" height="800" rx="44" fill="url(#bg)"/><g transform="translate(125 130)" filter="url(#s)"><rect width="950" height="480" rx="38" fill="#fff8ef"/><path d="M90 368h740" stroke="#6f4628" stroke-width="18" stroke-linecap="round" opacity=".28"/><rect x="120" y="240" width="220" height="135" rx="24" fill="#d7c7b4"/><path d="M120 282h220M230 240v135" stroke="#8b512c" stroke-width="8" opacity=".5"/><rect x="410" y="185" width="300" height="160" rx="28" fill="#c58a55"/><path d="M710 230h92l76 86v64H710z" fill="#2f3436"/><circle cx="495" cy="398" r="36" fill="#121212"/><circle cx="792" cy="398" r="36" fill="#121212"/><rect x="455" y="222" width="210" height="72" rx="16" fill="#fff2df" opacity=".34"/><path d="M235 205l-64-80M286 208l68-82" stroke="#2f3436" stroke-width="20" stroke-linecap="round"/><rect x="164" y="178" width="200" height="54" rx="18" fill="#2f3436"/></g></svg>