<svg xmlns="http://www.w3.org/2000/svg" width="1200" height="800" viewBox="0 0 1200 800" role="img" aria-label="Мелкий ремонт и подготовка помещения"><defs><linearGradient id="bg" x1="0" y1="0" x2="1" y2="1"><stop stop-color="#f7eadb"/><stop offset="1" stop-color="#7a4b2d"/></linearGradient><filter id="s"><feDropShadow dx="0" dy="18" stdDeviation="14" flood-opacity=".2"/></filter></defs><rect width="1200" height="800" rx="44" fill="url(#bg)"/><path d="M90 560h1020v170H90z" fill="#6f4628" opacity=".15"/><g transform="translate(120 105)" filter="url(#s)"><rect width="960" height="525" rx="34" fill="#fff8ef"/><rect x="70" y="70" width="280" height="190" rx="18" fill="#e7d2ba"/><rect x="95" y="95" width="230" height="140" rx="10" fill="#f6eadc"/><path d="M95 185h230M210 95v140" stroke="#c6a27d" stroke-width="8"/><rect x="570" y="98" width="245" height="340" rx="22" fill="#d2a06a"/><rect x="594" y="125" width="197" height="286" rx="12" fill="#8b512c" opacity=".35"/><circle cx="765" cy="275" r="10" fill="#fff8ef"/><path d="M175 392h430" stroke="#6f4628" stroke-width="20" stroke-linecap="round"/><path d="M295 340l95 95M390 340l-95 95" stroke="#2e3335" stroke-width="22" stroke-linecap="round"/><rect x="155" y="455" width="520" height="36" rx="18" fill="#c58a55"/><rect x="235" y="490" width="360" height="24" rx="12" fill="#2e3335"/></g></svg>